/* XPM */
static const char * elementtable_xpm[] = {
"22 22 44 1",
" 	c None",
".	c #3F2414",
"+	c #2D1000",
"@	c #232323",
"#	c #303030",
"$	c #100500",
"%	c #5F3C27",
"&	c #726963",
"*	c #8B8582",
"=	c #ABABAB",
"-	c #585858",
";	c #B1B1B1",
">	c #B3B3B3",
",	c #383635",
"'	c #8B827D",
")	c #B7B7B7",
"!	c #D5D5D5",
"~	c #E0E0E0",
"{	c #363636",
"]	c #6B6B6B",
"^	c #E5E5E5",
"/	c #727272",
"(	c #E2E2E2",
"_	c #A69D97",
":	c #F9F9F9",
"<	c #FDFDFD",
"[	c #FFFFFF",
"}	c #8E8E8E",
"|	c #B8AEA9",
"1	c #515151",
"2	c #353535",
"3	c #4A4A4A",
"4	c #7C7C7C",
"5	c #666666",
"6	c #6F6F6F",
"7	c #7F7F7F",
"8	c #909090",
"9	c #3F3F3F",
"0	c #757575",
"a	c #796B66",
"b	c #C6C7CC",
"c	c #ECF5FF",
"d	c #696360",
"e	c #DAD5D2",
"   .++@#+++++++++$.   ",
" %+&*=#-;;;;;;;;>,'+% ",
" +&)!~{]^^^^^^^^^/(_+ ",
".&)^:<{][[[[[[[[[}<[|.",
"+@#{123//3{{{{{{{{{{{+",
"+#-]45677/]]]]]]]]]]]+",
"+;^[[[67[[[[[[[[[8[[[+",
"+;^[[[3/[[[[[[[[[8[[[+",
"$90888{]8888888888888$",
"+abccc{]ccccccccc8ccc+",
"+abccc{]ccccccccc8ccc+",
"$90888{]8888888888888$",
"+;^[[[{][[[[[[[[[8[[[+",
"+;^[[[{][[[[[[[[[8[[[+",
"$90888{]8888888888888$",
"+abccc{]ccccccccc8ccc+",
"+abccc{]ccccccccc8ccc+",
"$,/}88{]888888888888d$",
".'(<[[{][[[[[[[[[[[[|.",
" +_[[[{][[[[[[[[[[[|+ ",
" %+|e[{][[[[[[[[[e|+. ",
"   .++++++++++++++.   "};
