/* XPM */
static const char * GlMainWidget_xpm[] = {
"22 22 247 2",
"  	c None",
". 	c #A1A09A",
"+ 	c #A4A39D",
"@ 	c #A4A29D",
"# 	c #A7A6A0",
"$ 	c #A9A8A2",
"% 	c #60605D",
"& 	c #5A5A57",
"* 	c #7F7F7A",
"= 	c #757570",
"- 	c #767874",
"; 	c #838681",
"> 	c #6C6D69",
", 	c #7B7C78",
"' 	c #7A7975",
") 	c #585855",
"! 	c #7B7A75",
"~ 	c #8D8C86",
"{ 	c #81807A",
"] 	c #A7A7A5",
"^ 	c #FEFEFE",
"/ 	c #FCF3EF",
"( 	c #FDE6DE",
"_ 	c #FFFFFF",
": 	c #F7E3E4",
"< 	c #F9F8F6",
"[ 	c #D47969",
"} 	c #E3E8EB",
"| 	c #F4E3D4",
"1 	c #FEC9CC",
"2 	c #F4C0CA",
"3 	c #FBF9F7",
"4 	c #DDF1AC",
"5 	c #E9D5C8",
"6 	c #F9EDE7",
"7 	c #DCBCBB",
"8 	c #E1D6E4",
"9 	c #F1F4F3",
"0 	c #E8CBC1",
"a 	c #FFEEEE",
"b 	c #FFDEDD",
"c 	c #F5D9E2",
"d 	c #FFE9E9",
"e 	c #D7E1E5",
"f 	c #CF8B9B",
"g 	c #BAB269",
"h 	c #E1E8A4",
"i 	c #FFE1E1",
"j 	c #FFE7E7",
"k 	c #F0D7E6",
"l 	c #FBD8D5",
"m 	c #F7968E",
"n 	c #FFF0F0",
"o 	c #FFF8F8",
"p 	c #FDD1DC",
"q 	c #D5D7B5",
"r 	c #E2E3EB",
"s 	c #E8E2CE",
"t 	c #A7A482",
"u 	c #98898D",
"v 	c #D4746E",
"w 	c #D3B65E",
"x 	c #FFEFEF",
"y 	c #F4D5E4",
"z 	c #FDDCDC",
"A 	c #FEFFFD",
"B 	c #FEE8E2",
"C 	c #FBDCD9",
"D 	c #BA6E5E",
"E 	c #CC99AB",
"F 	c #EBF3F3",
"G 	c #AC7EB6",
"H 	c #C77D7A",
"I 	c #BA856A",
"J 	c #C0686B",
"K 	c #D67146",
"L 	c #F6C9B7",
"M 	c #FFE1E2",
"N 	c #F8D8E2",
"O 	c #FFE3E3",
"P 	c #F6F3F7",
"Q 	c #FCFFFB",
"R 	c #B4B2B2",
"S 	c #A78B7A",
"T 	c #AD7687",
"U 	c #D2586F",
"V 	c #C8634E",
"W 	c #DB4B47",
"X 	c #EB8D6B",
"Y 	c #FFCCD3",
"Z 	c #FBEAED",
"` 	c #FFFAFA",
" .	c #FFE0E1",
"..	c #F8FAF5",
"+.	c #B7BB50",
"@.	c #AE9A56",
"#.	c #B47457",
"$.	c #BD6053",
"%.	c #D64255",
"&.	c #E03F39",
"*.	c #EA4B37",
"=.	c #FD9EA4",
"-.	c #FEFDFD",
";.	c #FFD9D9",
">.	c #FAFCFC",
",.	c #D8DDD9",
"'.	c #AED4B7",
").	c #DDF1DA",
"!.	c #D0E7DE",
"~.	c #739D83",
"{.	c #978864",
"].	c #B7764E",
"^.	c #C9633A",
"/.	c #D54830",
"(.	c #E0312E",
"_.	c #EB221F",
":.	c #FB605F",
"<.	c #FFDADA",
"[.	c #FCF3F3",
"}.	c #EAC7C2",
"|.	c #DDC0B4",
"1.	c #D2C2B0",
"2.	c #E0E6CE",
"3.	c #F9FDF5",
"4.	c #E7ECD2",
"5.	c #B9C978",
"6.	c #B0BA72",
"7.	c #B7A577",
"8.	c #C79368",
"9.	c #D58570",
"0.	c #E27867",
"a.	c #F25C53",
"b.	c #FC3130",
"c.	c #FBBBBB",
"d.	c #F6D2D0",
"e.	c #FDF9F7",
"f.	c #FCF9F6",
"g.	c #F7FDFB",
"h.	c #FCFFFD",
"i.	c #F1E7F0",
"j.	c #FDFCFA",
"k.	c #FBEFE7",
"l.	c #FFFBFB",
"m.	c #FFDFDF",
"n.	c #FFDDDD",
"o.	c #FB9599",
"p.	c #FCB1B1",
"q.	c #FFD4D0",
"r.	c #FFDEDE",
"s.	c #FDE5E0",
"t.	c #F1BAB4",
"u.	c #F0C3C2",
"v.	c #D9B7C6",
"w.	c #BA574C",
"x.	c #F7C0AC",
"y.	c #F56C45",
"z.	c #F0C3B5",
"A.	c #FFD7D7",
"B.	c #FFE6E6",
"C.	c #FEF5F7",
"D.	c #FEBBC4",
"E.	c #EFB8B4",
"F.	c #FDDED5",
"G.	c #FFFDFC",
"H.	c #FFDCDC",
"I.	c #FFEAEA",
"J.	c #FEECED",
"K.	c #FEE7E4",
"L.	c #EBD0AC",
"M.	c #E3DEE6",
"N.	c #FBE6F1",
"O.	c #EF8C71",
"P.	c #F7D7B9",
"Q.	c #FED4CB",
"R.	c #F9EBDC",
"S.	c #FDEDEF",
"T.	c #FEC6D1",
"U.	c #E4BAAC",
"V.	c #FCF9F9",
"W.	c #FFE5E5",
"X.	c #FFFEFE",
"Y.	c #FAE0D3",
"Z.	c #FFF2F2",
"`.	c #FDDBCD",
" +	c #FDF9F2",
".+	c #CCA47A",
"++	c #E0DDC6",
"@+	c #FBFCF8",
"#+	c #FBE5E7",
"$+	c #FED4DD",
"%+	c #EAD2C4",
"&+	c #E6E2DA",
"*+	c #F7E7DD",
"=+	c #FEF7F0",
"-+	c #FEF3F0",
";+	c #FECEC4",
">+	c #FAC2B4",
",+	c #FEFBEC",
"'+	c #FEFCFB",
")+	c #EDE4E4",
"!+	c #E3CFCF",
"~+	c #F9E3DE",
"{+	c #C5D6B7",
"]+	c #F9DBE0",
"^+	c #FDEFE7",
"/+	c #F0E6CF",
"(+	c #F5DCDB",
"_+	c #FEE3E4",
":+	c #FFF7F7",
"<+	c #FDFFFA",
"[+	c #C0AEAB",
"}+	c #B85B5C",
"|+	c #AFDFB0",
"1+	c #F2FCF9",
"2+	c #F5EAD7",
"3+	c #F3D2C2",
"4+	c #F4D6CF",
"5+	c #F3F3EC",
"6+	c #F6F7E4",
"7+	c #FFFBFD",
"8+	c #F4E5D9",
"9+	c #E47074",
"0+	c #F1F6EF",
"a+	c #F0F9F7",
"b+	c #E9E3EC",
"c+	c #F3FDF8",
"d+	c #F9DBD6",
"e+	c #FCDAC8",
"f+	c #F89187",
"g+	c #E5EAE7",
"h+	c #F2F9ED",
"i+	c #F8E0D6",
"j+	c #E8D0BE",
"k+	c #E29D96",
"l+	c #FDFEFC",
"m+	c #FDDDF2",
"n+	c #FFE5E7",
"o+	c #F9E1E2",
"p+	c #E9E6EA",
"q+	c #E2A58A",
"r+	c #F7DEDF",
"s+	c #F5D8C8",
"t+	c #F8EDE9",
"u+	c #FFF5F6",
"v+	c #F8D8C7",
"w+	c #E4BBB4",
"x+	c #F1AFC0",
". + + + + + + @ + + + + + . + + + + + # $ $ ",
"% & * = - ; > , ' ) ) ) ) ) ) ) ) ) ) ! ~ { ",
"] ^ ^ ^ ^ ^ ^ ^ ^ ^ ^ ^ ^ ^ ^ / ( ^ ^ ^ ^ ^ ",
"] _ _ _ _ _ _ _ : < [ } _ _ _ | 1 2 _ _ _ _ ",
"] _ _ _ _ _ 3 4 5 6 7 8 9 0 a b c d _ _ _ _ ",
"] _ _ _ _ e f g h i j k l m n _ o p q r _ _ ",
"] _ _ _ s t u v w i x y _ z _ A B C D E _ _ ",
"] _ _ F G H I J K L M N _ O _ _ _ _ P Q _ _ ",
"] _ _ R S T U V W X Y Z `  ._ _ _ _ _ _ _ _ ",
"] _ ..+.@.#.$.%.&.*.=.-.;._ _ >.,.'.)._ _ _ ",
"] _ !.~.{.].^./.(._.:.<.[.}.|.1.2.3._ _ _ _ ",
"] _ 4.5.6.7.8.9.0.a.b.c.d.e._ _ _ _ f.g.h.i.",
"] j.k.l._ _ o m.n.o.p.q.r.i _ _ _ s.t.u.v.w.",
"] x.y.z._ A.B.C.D.E.O F.G.l.H.I._ J.K.L.g.M.",
"] N.O.P.Q.R.S.T.U.V.W.X.Y._ _ Z.`. +n._ _ _ ",
"] .+++_ @+#+$+%+&+_ O _ *+=+_ _ -+;+>+,+_ _ ",
"] '+_ _ )+!+~+{+]+^+r._ _ /+_ -.(+_+:+<+_ _ ",
"] _ _ _ [+}+|+1+2+3+4+_ _ 5+6+7+8+9+0+_ _ _ ",
"] _ _ _ a+b+c+d+e+f+g+_ _ _ h+_ i+j+k+_ _ _ ",
"] _ _ _ _ _ _ l+m+n+o+_ _ _ _ _ _ _ p+_ _ _ ",
"] _ _ _ _ _ _ _ _ _ q+r+s+t+_ _ _ _ _ _ _ _ ",
"] _ _ _ _ _ _ _ u+v+w+x+_ _ _ _ _ _ _ _ _ _ "};
