/* XPM */
static const char * gwoverviewwidget_xpm[] = {
"22 22 7 1",
" 	c #000000",
".	c #4D86FF",
"+	c #85BCFF",
"@	c #CBFAFF",
"#	c #FFFFFF",
"$	c #FF0000",
"%	c #CECECE",
" .................... ",
". ++++++++++++++++++ .",
".+ @@@@@@@@@@@@@@@@ +.",
".+@ #########$#### @+.",
".+@# #######%#### #@+.",
".+@## #####%#### ##@+.",
".+@###          ###@+.",
".+@### ##%##### ###@+.",
".+@$%% %$###### ###@+.",
".+@### ##%###$# ###@+.",
".+@### ##%##%#% ###@+.",
".+@### ##%#%### ###@+.",
".+@### ###$#### %##@+.",
".+@### ######## #%#@+.",
".+@### ######## ##$@+.",
".+@###          ###@+.",
".+@## ########## ##@+.",
".+@# ############ #@+.",
".+@ ############## @+.",
".+ @@@@@@@@@@@@@@@@ +.",
". ++++++++++++++++++ .",
" .................... "};
