/* XPM */
static const char * sghierarchywidget_xpm[] = {
"22 22 276 2",
"  	c None",
". 	c #010101",
"+ 	c #60605D",
"@ 	c #646461",
"# 	c #9B9B97",
"$ 	c #EAEAE3",
"% 	c #E8E8E1",
"& 	c #DAD8CE",
"* 	c #E8E5DA",
"= 	c #E9E6DC",
"- 	c #E9E9E2",
"; 	c #D4D3CD",
"> 	c #D8D7D1",
", 	c #DDDCD6",
"' 	c #0B0B0B",
") 	c #555552",
"! 	c #666663",
"~ 	c #686763",
"{ 	c #6D716E",
"] 	c #626461",
"^ 	c #6C6D6A",
"/ 	c #666763",
"( 	c #5D5E5B",
"_ 	c #767771",
": 	c #686966",
"< 	c #636360",
"[ 	c #62615D",
"} 	c #71706C",
"| 	c #CDCAC2",
"1 	c #807F79",
"2 	c #95948E",
"3 	c #7E7D78",
"4 	c #A2A099",
"5 	c #6E6E6B",
"6 	c #656561",
"7 	c #777774",
"8 	c #787772",
"9 	c #8A908C",
"0 	c #858884",
"a 	c #8E8F8A",
"b 	c #8B8B86",
"c 	c #81827D",
"d 	c #7E807B",
"e 	c #8A8B86",
"f 	c #8B8A85",
"g 	c #807E79",
"h 	c #6F6F6A",
"i 	c #7F7E79",
"j 	c #73726E",
"k 	c #81807A",
"l 	c #84837E",
"m 	c #EFEFE8",
"n 	c #E9E9E1",
"o 	c #E8E8E0",
"p 	c #EAEAE2",
"q 	c #C3C1BB",
"r 	c #DFDFDA",
"s 	c #D6D3CC",
"t 	c #E4E3DC",
"u 	c #DAD7D1",
"v 	c #DAD9D4",
"w 	c #999892",
"x 	c #CAC8C2",
"y 	c #D1CCC2",
"z 	c #B0B2AD",
"A 	c #B1AEA7",
"B 	c #988E89",
"C 	c #9C928B",
"D 	c #918B88",
"E 	c #9E9B91",
"F 	c #B0ABA5",
"G 	c #DCD8CF",
"H 	c #BCBBBA",
"I 	c #EDEAE1",
"J 	c #C3BC9C",
"K 	c #D3CCB4",
"L 	c #DFD7BD",
"M 	c #EDE1BC",
"N 	c #EEDA91",
"O 	c #D6C592",
"P 	c #C2B07A",
"Q 	c #B59D53",
"R 	c #C3AA5B",
"S 	c #BDA055",
"T 	c #E1C469",
"U 	c #D6B964",
"V 	c #F1D06F",
"W 	c #BEA056",
"X 	c #D4B661",
"Y 	c #D3B35F",
"Z 	c #FFDD76",
"` 	c #EED990",
" .	c #D2BD80",
"..	c #CCAF5E",
"+.	c #DABD65",
"@.	c #D4B762",
"#.	c #E3C56A",
"$.	c #D3B662",
"%.	c #C6A95B",
"&.	c #D5B661",
"*.	c #E2C167",
"=.	c #E9E9E6",
"-.	c #EFEFEE",
";.	c #EEEDEC",
">.	c #DCDCDC",
",.	c #D8D8D9",
"'.	c #D5CDCB",
").	c #D3D2D3",
"!.	c #FAFAF9",
"~.	c #E6E6E7",
"{.	c #F0F0F0",
"].	c #F8F7F6",
"^.	c #F8F7F7",
"/.	c #E6E4E3",
"(.	c #FDFDFD",
"_.	c #FFFFFF",
":.	c #E8E8E6",
"<.	c #E4E4E3",
"[.	c #D6D6D4",
"}.	c #C0BFBF",
"|.	c #BBBBBC",
"1.	c #C6BDBB",
"2.	c #AAA4A4",
"3.	c #F6F6F6",
"4.	c #BDBDC1",
"5.	c #A7A6A9",
"6.	c #B1B1B0",
"7.	c #C6C5C3",
"8.	c #B1AEAF",
"9.	c #B1A8A6",
"0.	c #FDFDFE",
"a.	c #C5B87B",
"b.	c #C5BC92",
"c.	c #E9E9E7",
"d.	c #F1F1F1",
"e.	c #F6F5F4",
"f.	c #F3F2F2",
"g.	c #F5F3F3",
"h.	c #D0C383",
"i.	c #CAC095",
"j.	c #E2E2E0",
"k.	c #C4C5C6",
"l.	c #B6B4B4",
"m.	c #AAA2A0",
"n.	c #ACA9A9",
"o.	c #C4C2C1",
"p.	c #A6A1A5",
"q.	c #BBBABA",
"r.	c #B3A9A9",
"s.	c #B6ADAB",
"t.	c #C4C6C9",
"u.	c #A5A6AA",
"v.	c #D2CBCA",
"w.	c #C0C0C2",
"x.	c #B2B1B0",
"y.	c #B8B8BA",
"z.	c #B9B9BA",
"A.	c #EDD991",
"B.	c #FBFBFB",
"C.	c #FAF9F9",
"D.	c #F4F4F4",
"E.	c #F8F8F8",
"F.	c #F7F7F7",
"G.	c #F7F7F6",
"H.	c #FAF9FA",
"I.	c #FCFBFB",
"J.	c #E7E7E7",
"K.	c #FBFAFA",
"L.	c #E0DDDB",
"M.	c #BDBFC0",
"N.	c #D1CAC8",
"O.	c #BDB4B2",
"P.	c #E9EBEC",
"Q.	c #BBBDBC",
"R.	c #CCC8C7",
"S.	c #CACACC",
"T.	c #D5D1D1",
"U.	c #B3AEAE",
"V.	c #E2E1E2",
"W.	c #CAC9CE",
"X.	c #F9F9F8",
"Y.	c #F4F3F3",
"Z.	c #DBDBDC",
"`.	c #D0CCCB",
" +	c #DBD7D6",
".+	c #F7F8F9",
"++	c #D7D6D6",
"@+	c #DDDADA",
"#+	c #D3D1D1",
"$+	c #CBC7C7",
"%+	c #DFDDDE",
"&+	c #EEECEB",
"*+	c #DEDDDF",
"=+	c #FAFBFC",
"-+	c #D6C693",
";+	c #EFEFEF",
">+	c #F1EDEB",
",+	c #CFD2D3",
"'+	c #EEEBEB",
")+	c #D5CFCE",
"!+	c #F6F7F8",
"~+	c #D2D1D1",
"{+	c #E7E6E6",
"]+	c #D3CFCE",
"^+	c #ECECED",
"/+	c #E9E7E4",
"(+	c #E9EBEE",
"_+	c #DBD6BF",
":+	c #E4E0D2",
"<+	c #EBEBEA",
"[+	c #F2F1F0",
"}+	c #B7B8B9",
"|+	c #BDB5B3",
"1+	c #CBC7C6",
"2+	c #E0E0E1",
"3+	c #C6C6C4",
"4+	c #BBB6B6",
"5+	c #CDCBCA",
"6+	c #AAA5A8",
"7+	c #BAB6B7",
"8+	c #E0DCDB",
"9+	c #CFCDCD",
"0+	c #F6F6F7",
"a+	c #E0DED8",
"b+	c #EBEAE7",
"c+	c #F5F5F5",
"d+	c #FEFEFD",
"e+	c #DBDBDA",
"f+	c #FEFFFF",
"g+	c #F2EFEF",
"h+	c #E7E7E6",
"i+	c #EDEDED",
"j+	c #F1F1F0",
"k+	c #93918C",
"l+	c #D1CFC8",
"m+	c #F1EFEE",
"n+	c #A7A6A6",
"o+	c #BAB4B4",
"p+	c #9F9493",
"q+	c #CED0D1",
"r+	c #ADA6A4",
"s+	c #BEBCBB",
"t+	c #959094",
"u+	c #979292",
"v+	c #C9C5C5",
"w+	c #E7E6E4",
"x+	c #B0AEA7",
"y+	c #D6D4CD",
"z+	c #DCDCD8",
"A+	c #F0EFEC",
"B+	c #EDE9D8",
"C+	c #F2EDD7",
"D+	c #F0EBD6",
"E+	c #E3E0CE",
"F+	c #EDE8D5",
"G+	c #EEE9D6",
"H+	c #F0EFED",
"I+	c #E1DEDC",
"J+	c #EEEDEA",
"K+	c #B7B6AF",
"L+	c #D9D8D1",
"M+	c #BDBCB5",
"N+	c #A3A29C",
"O+	c #D5C589",
"P+	c #E8D084",
"Q+	c #DFCB83",
"R+	c #B6AC73",
"S+	c #D4C27E",
"T+	c #D8C582",
"U+	c #FCFBF7",
"V+	c #EBE9E4",
"W+	c #8C8B86",
"X+	c #BAB8B1",
"Y+	c #A9A7A1",
"Z+	c #EDEDE5",
"`+	c #F0F0E9",
". + @ @ @ @ @ @ @ @ @ # $ % & * = - ; > , , ",
"' + ) ! ~ { ] ^ / / ( _ : < [ ) } | 1 2 3 4 ",
"' 5 6 7 8 9 0 a b c 6 d e f g 6 h i j k j l ",
"' m n o o o o o o o o o o o o o o o o o o p ",
"' m > q r s t t t t u v t t t t t t t t w x ",
"' m y z A B C D E F G H I I I I I I I I J K ",
"' m L M M M M M M M M M M M M M M M M M N O ",
"' m P Q R S T U V W X Y Z Z Z Z Z Z Z Z ` O ",
"' m  ...+.@.#.+.$.%.&.*.Z Z Z Z Z Z Z Z ` O ",
"' m =.-.;.>.,.'.).!.~.{.].{.^./.(._._._.N O ",
"' m :.<.[.}.|.1.2.3.4.5.6.7.8.9.0._._._.a.b.",
"' m c.d.3.3.^._._._._.e.f._._.g.3._._._.h.i.",
"' m :.j.k.l.m.n.o.p.q.r.s.t.u.v.w.x.y.z.A.O ",
"' m c.d.B.B.C.D.E.F.G.H.C.3.D.I.{.3.J.K.N O ",
"' m :.<.L.M.N.O.P.Q.R.S.T.U.V.W._._._._.N O ",
"' m =.X.Y.Z.`. +.+++@+#+$+%+&+*+=+_._._.N -+",
"' m c._._.;+>+,+'+)+!+~+/.<.{+]+^+/+(+_._+:+",
"' m c._._.<+[+}+|+1+2+3+4+5+6+7+8+9+0+_.a+b+",
"' m c._._._._.c+d+e+f+g+_.h+i+_._.g+_.j+k+l+",
"' m c._._._._.:.m+n+o+p+q+H r+s+t+u+v+w+x+y+",
"' m z+A+B+C+C+C+D+E+F+C+C+C+G+H+I+A+A+J+K+L+",
"' m M+N+O+P+P+P+Q+R+S+P+P+P+T+U+V+W+X+Y+Z+`+"};
