<?xml version="1.0" encoding="UTF-8" standalone="no"?>
<svg
   xmlns:dc="http://purl.org/dc/elements/1.1/"
   xmlns:cc="http://creativecommons.org/ns#"
   xmlns:rdf="http://www.w3.org/1999/02/22-rdf-syntax-ns#"
   xmlns:svg="http://www.w3.org/2000/svg"
   xmlns="http://www.w3.org/2000/svg"
   xmlns:sodipodi="http://sodipodi.sourceforge.net/DTD/sodipodi-0.dtd"
   xmlns:inkscape="http://www.inkscape.org/namespaces/inkscape"
   version="1.1"
   width="24"
   height="24"
   viewBox="0 0 24.00 24.00"
   enable-background="new 0 0 24.00 24.00"
   xml:space="preserve"
   id="svg2"
   inkscape:version="0.91 r13725"
   sodipodi:docname="eye.svg"><metadata
     id="metadata10"><rdf:RDF><cc:Work
         rdf:about=""><dc:format>image/svg+xml</dc:format><dc:type
           rdf:resource="http://purl.org/dc/dcmitype/StillImage" /></cc:Work></rdf:RDF></metadata><defs
     id="defs8" /><sodipodi:namedview
     pagecolor="#ffffff"
     bordercolor="#666666"
     borderopacity="1"
     objecttolerance="10"
     gridtolerance="10"
     guidetolerance="10"
     inkscape:pageopacity="0"
     inkscape:pageshadow="2"
     inkscape:window-width="904"
     inkscape:window-height="480"
     id="namedview6"
     showgrid="false"
     inkscape:zoom="13.906433"
     inkscape:cx="12.893573"
     inkscape:cy="2.1456013"
     inkscape:window-x="462"
     inkscape:window-y="203"
     inkscape:window-maximized="0"
     inkscape:current-layer="svg2" /><path
     d="M 11.9994,8.99813C 10.3424,8.99813 8.99941,10.3411 8.99941,11.9981C 8.99941,13.6551 10.3424,14.9981 11.9994,14.9981C 13.6564,14.9981 14.9994,13.6551 14.9994,11.9981C 14.9994,10.3411 13.6564,8.99813 11.9994,8.99813 Z M 11.9994,16.9981C 9.23841,16.9981 6.99941,14.7591 6.99941,11.9981C 6.99941,9.23714 9.23841,6.99813 11.9994,6.99813C 14.7604,6.99813 16.9994,9.23714 16.9994,11.9981C 16.9994,14.7591 14.7604,16.9981 11.9994,16.9981 Z M 11.9994,4.49813C 6.99741,4.49813 2.72741,7.60915 0.99941,11.9981C 2.72741,16.3871 6.99741,19.4981 11.9994,19.4981C 17.0024,19.4981 21.2714,16.3871 22.9994,11.9981C 21.2714,7.60915 17.0024,4.49813 11.9994,4.49813 Z "
     id="path4"
     stroke-linejoin="round"
     stroke-width="0.2"
     fill-opacity="1"
     fill="#050708" /></svg>